<svg xmlns="http://www.w3.org/2000/svg" width="1024" height="1024" viewBox="0 0 1024 1024">
<title>Crypto LED Board</title>
<rect width="1024" height="1024" rx="272" fill="#030201"/>
<g fill="#ff6a00" shape-rendering="crispEdges">
<rect x="192" y="688" width="58" height="58" rx="10"/>
<rect x="264" y="616" width="58" height="58" rx="10"/>
<rect x="336" y="544" width="58" height="58" rx="10"/>
<rect x="408" y="544" width="58" height="58" rx="10"/>
<rect x="480" y="616" width="58" height="58" rx="10"/>
<rect x="552" y="544" width="58" height="58" rx="10"/>
<rect x="552" y="472" width="58" height="58" rx="10"/>
<rect x="624" y="400" width="58" height="58" rx="10"/>
<rect x="696" y="328" width="58" height="58" rx="10"/>
<rect x="768" y="256" width="58" height="58" rx="10"/>
<rect x="624" y="256" width="58" height="58" rx="10"/>
<rect x="696" y="256" width="58" height="58" rx="10"/>
<rect x="768" y="328" width="58" height="58" rx="10"/>
<rect x="768" y="400" width="58" height="58" rx="10"/>
</g>
</svg>
